<?xml version="1.0" encoding="UTF-8"?>
<svg id="Layer_1" data-name="Layer 1" xmlns="http://www.w3.org/2000/svg" viewBox="0 0 571.65 570.78">
  <path d="m571.65,339.3v-106.43l-78.61-19.22c-6.26-17.22-13.83-31.83-13.83-31.83l42.26-61.83-65.22-73.57-77.22,40.96c-10.96-6.78-25.3-10.43-25.3-10.43L335.74,0h-99.13l-19.04,77.48c-14.09,4.43-24.52,9.39-24.52,9.39l-76.96-40.43L50.09,119.22l43.57,62.09c-9.39,14.61-15.65,33.13-15.65,33.13L0,232.87v104.96l78.78,19.3c5.74,17.22,14.35,32.61,14.35,32.61l-43.3,61.04,65.74,73.57,77.74-40.7c10.17,6,24.78,10.7,24.78,10.7l19.04,76.43h98.09l18.78-76.96c13.83-3.39,24.78-9.65,24.78-9.65l77.48,40.43,65.22-73.3-42.52-61.83c7.83-14.35,14.09-32.78,14.09-32.78l78.61-17.39Zm-287.48,137.04c-105.46,0-190.96-85.49-190.96-190.96s85.49-190.96,190.96-190.96,190.96,85.49,190.96,190.96-85.49,190.96-190.96,190.96Z" style="fill: #fff; stroke-width: 0px;"/>
  <path d="m374.09,205.39c-57.04-24.35-82.09,14.61-82.09,14.61-1.15,1.58-2.78-1.04-2.78-1.04,0,0-25.04-38.96-82.09-14.61-38.96,18.09-59.83,0-59.83,0v137.74s20.87,18.09,59.83,0c57.04-24.35,82.09,14.61,82.09,14.61,0,0,1.63,2.62,2.78,1.04,0,0,25.04-38.96,82.09-14.61,38.96,18.09,59.83,0,59.83,0v-137.74s-20.87,18.09-59.83,0Zm36.69,120.05s-17.5,13.23-50.17,0c-47.83-17.81-68.84,10.68-68.84,10.68-.96,1.15-2.33-.76-2.33-.76,0,0-21-28.49-68.84-10.68-32.67,13.23-50.17,0-50.17,0v-100.74s17.5,13.23,50.17,0c47.83-17.81,68.84,10.68,68.84,10.68,0,0,1.37,1.92,2.33.76,0,0,21-28.49,68.84-10.68,32.67,13.23,50.17,0,50.17,0v100.74Z" style="fill: #fff; stroke-width: 0px;"/>
</svg>